<svg width="157" height="40" viewBox="0 0 157 40" fill="none" xmlns="http://www.w3.org/2000/svg">
<path d="M63.9509 17.5832L60.1695 16.8725C57.6723 16.375 57.1015 16.0907 57.1015 14.7404C57.1015 13.39 57.9577 12.8214 60.7403 12.8214C63.8796 12.8214 64.8071 13.5322 64.8071 15.8064V16.1618L69.516 14.8825C69.1593 11.1868 66.5194 8.48608 60.883 8.48608C54.7471 8.48608 52.3926 11.6843 52.3926 14.9536C52.3926 18.2939 54.1049 20.2839 58.1717 20.9946L61.9532 21.6343C64.9498 22.1318 65.3065 22.6293 65.3065 24.0507C65.3065 25.4721 64.6644 26.0407 61.8818 26.0407C58.0291 26.0407 57.1729 25.4011 57.1729 23.0557V22.7004L52.4639 23.9796C52.8207 28.1729 55.7459 30.3761 61.5964 30.3761C67.661 30.3761 69.9441 27.32 69.9441 23.9086C70.0155 20.8525 68.4458 18.5071 63.9509 17.5832Z" fill="black"/>
<path d="M87.2103 20.7103V20.355C87.2103 16.446 84.071 13.8164 79.7901 13.8164C74.4391 13.8164 71.3711 17.0857 71.3711 22.2028C71.3711 27.2489 74.225 30.4471 79.5047 30.4471C83.9283 30.4471 87.139 27.8175 87.139 23.9085V23.5532H82.3587V23.7664C82.3587 25.5432 81.3598 26.1828 79.3621 26.1828C77.0789 26.1828 76.08 25.1168 76.08 22.1318C76.08 19.1468 77.0789 18.0807 79.3621 18.0807C81.3598 18.0807 82.3587 18.6493 82.3587 20.4971V20.7814H87.2103V20.7103Z" fill="black"/>
<path d="M96.8414 13.7454C92.3465 13.7454 89.3499 16.2329 89.3499 20.0707V20.4261L93.9162 20.0707C93.9162 18.4361 94.701 17.9386 96.6274 17.9386C98.4824 17.9386 99.5526 18.2939 99.5526 20.1418V20.6393L94.0589 21.4921C90.7769 21.9896 88.9932 23.5532 88.9932 25.9696C88.9932 28.8836 91.2049 30.3761 94.0589 30.3761C97.0555 30.3761 98.6251 29.0968 99.5526 27.8886H99.7667V30.0207H104.19V20.5682C104.048 16.375 101.55 13.7454 96.8414 13.7454ZM95.5572 26.7514C94.1302 26.7514 93.4881 26.4671 93.4881 25.6143C93.4881 24.9746 93.9162 24.6193 94.915 24.4771L99.4813 23.7664C99.4813 26.2539 97.4836 26.7514 95.5572 26.7514Z" fill="black"/>
<path d="M106.902 10.0495V30.0917H111.683V8.77026L106.902 10.0495Z" fill="black"/>
<path d="M114.679 10.0495V30.0917H119.459V8.77026L114.679 10.0495Z" fill="black"/>
<path fill-rule="evenodd" clip-rule="evenodd" d="M129.876 13.7454C124.739 13.7454 121.671 17.0146 121.671 22.0607C121.671 27.1068 124.739 30.3761 129.876 30.3761C135.013 30.3761 138.01 27.1068 138.01 22.0607C138.01 17.0146 135.013 13.7454 129.876 13.7454ZM130.022 26.4807C127.585 26.4807 125.602 24.498 125.602 22.0608C125.602 19.6235 127.585 17.6408 130.022 17.6408C130.392 17.6408 130.761 17.6862 131.124 17.7771C131.198 17.7998 131.266 17.851 131.301 17.9191L131.371 18.0574C131.898 19.0845 132.801 19.8692 133.891 20.2484C134.005 20.2882 134.079 20.3905 134.079 20.5098V23.606C134.079 23.7253 134.005 23.8276 133.891 23.8674C132.801 24.2467 131.897 25.0303 131.367 26.0563L131.295 26.1967C131.261 26.2705 131.193 26.3217 131.119 26.3387C130.755 26.4353 130.386 26.4807 130.022 26.4807Z" fill="black"/>
<path d="M149.569 13.7454C147.143 13.7454 145.288 14.6693 144.431 16.4461H144.289V14.1007H139.865V35.4221L144.646 34.1428V27.9596H144.788C145.502 29.31 147.071 30.3761 149.64 30.3761C153.992 30.3761 156.418 27.1068 156.418 22.0607C156.489 17.0146 154.063 13.7454 149.569 13.7454ZM148.142 26.325C145.858 26.325 144.646 25.5432 144.646 23.34V20.7814C144.646 18.6493 145.93 17.7964 148.142 17.7964C150.924 17.7964 151.638 19.1468 151.638 22.0607C151.638 24.9746 150.924 26.325 148.142 26.325Z" fill="black"/>
<path d="M28.1612 2.38531C24.9851 5.65771 21.8089 8.91808 18.6328 12.1905C18.5967 12.2145 18.5726 12.2386 18.5365 12.2747L11.6188 19.1924C10.9571 19.8541 10.9571 20.9489 11.6188 21.6106L18.1756 28.1675L10.1029 36.6252C8.85169 35.771 7.66063 34.7845 6.48161 33.5934C-1.9761 25.1477 -2.26484 14.7049 6.25302 6.17504C13.0023 -0.574283 20.9668 -1.71722 28.1612 2.38531Z" fill="url(#paint0_linear)"/>
<path d="M33.84 33.7499C27.1027 40.4751 19.1864 41.6782 12.04 37.8163L14.8793 34.8447C17.0569 32.5949 19.2225 30.3572 21.4001 28.1074L23.5897 25.9178L27.8847 21.6228C28.5464 20.9611 28.5464 19.8663 27.8847 19.2046L25.9116 17.2315L21.376 12.6959L29.3645 4.3344L30.0623 3.61255C31.2413 4.44268 32.4203 5.44124 33.5392 6.56011C41.9247 14.9216 42.2857 25.2922 33.84 33.7499Z" fill="url(#paint1_linear)"/>
<defs>
<linearGradient id="paint0_linear" x1="23.1101" y1="-13.446" x2="-30.6895" y2="104.101" gradientUnits="userSpaceOnUse">
<stop stop-color="#00DECA"/>
<stop offset="0.37798" stop-color="#3A8AFA"/>
<stop offset="1" stop-color="#1A6AF4"/>
</linearGradient>
<linearGradient id="paint1_linear" x1="34.988" y1="-9.74623" x2="-18.4809" y2="107.016" gradientUnits="userSpaceOnUse">
<stop stop-color="#00DECA"/>
<stop offset="0.37798" stop-color="#3A8AFA"/>
<stop offset="1" stop-color="#1A6AF4"/>
</linearGradient>
</defs>
</svg>
