<svg width="40" height="40" viewBox="0 0 40 40" fill="none" xmlns="http://www.w3.org/2000/svg">
<path d="M26.799 5.3209C24.1525 8.04765 21.5059 10.7644 18.8594 13.4911C18.8293 13.5112 18.8092 13.5312 18.7792 13.5613L13.0149 19.3255C12.4636 19.8769 12.4636 20.7892 13.0149 21.3405L18.4784 26.804L11.7518 33.8515C10.7092 33.1397 9.71676 32.3177 8.73433 31.3252C1.6869 24.2878 1.44631 15.5863 8.54386 8.47871C14.1678 2.8548 20.8042 1.90245 26.799 5.3209Z" fill="url(#paint0_linear_375_40174)"/>
<path d="M31.5306 31.4556C25.9168 37.0595 19.3204 38.0619 13.3657 34.844L15.7316 32.3679C17.5461 30.4932 19.3505 28.6286 21.165 26.754L22.9895 24.9295L26.5684 21.3506C27.1197 20.7993 27.1197 19.887 26.5684 19.3356L24.9243 17.6916L21.145 13.9122L27.8014 6.94499L28.3829 6.34351C29.3653 7.03522 30.3477 7.86727 31.28 8.79958C38.2673 15.7668 38.568 24.4082 31.5306 31.4556Z" fill="url(#paint1_linear_375_40174)"/>
<defs>
<linearGradient id="paint0_linear_375_40174" x1="22.5901" y1="-7.87065" x2="-22.2387" y2="90.0759" gradientUnits="userSpaceOnUse">
<stop stop-color="#00DECA"/>
<stop offset="0.37798" stop-color="#3A8AFA"/>
<stop offset="1" stop-color="#1A6AF4"/>
</linearGradient>
<linearGradient id="paint1_linear_375_40174" x1="32.4873" y1="-4.78777" x2="-12.0661" y2="92.5054" gradientUnits="userSpaceOnUse">
<stop stop-color="#00DECA"/>
<stop offset="0.37798" stop-color="#3A8AFA"/>
<stop offset="1" stop-color="#1A6AF4"/>
</linearGradient>
</defs>
</svg>
