<svg width="160" height="40" viewBox="0 0 160 40" fill="none" xmlns="http://www.w3.org/2000/svg">
<path d="M63.9998 18.4565L60.0739 17.7177C57.4814 17.2006 56.8888 16.905 56.8888 15.5013C56.8888 14.0976 57.7777 13.5066 60.6665 13.5066C63.9257 13.5066 64.8887 14.2454 64.8887 16.6095V16.9789L69.7775 15.6491C69.4071 11.8074 66.6664 9 60.8147 9C54.4444 9 52 12.3245 52 15.723C52 19.1953 53.7777 21.2639 57.9999 22.0027L61.9258 22.6676C65.0368 23.1847 65.4072 23.7019 65.4072 25.1795C65.4072 26.6571 64.7405 27.2481 61.8517 27.2481C57.8518 27.2481 56.9629 26.5832 56.9629 24.1452V23.7758L52.0741 25.1056C52.4444 29.4644 55.4814 31.7547 61.5554 31.7547C67.8516 31.7547 70.2219 28.5779 70.2219 25.0317C70.296 21.8549 68.6664 19.4169 63.9998 18.4565Z" fill="white"/>
<path d="M88.1474 21.7078V21.3384C88.1474 17.275 84.8882 14.5415 80.4438 14.5415C74.8883 14.5415 71.7032 17.9399 71.7032 23.2592C71.7032 28.5046 74.6661 31.8292 80.1475 31.8292C84.74 31.8292 88.0733 29.0956 88.0733 25.0323V24.6629H83.1104V24.8845C83.1104 26.7315 82.0734 27.3964 79.9994 27.3964C77.629 27.3964 76.592 26.2882 76.592 23.1853C76.592 20.0824 77.629 18.9742 79.9994 18.9742C82.0734 18.9742 83.1104 19.5653 83.1104 21.4861V21.7816H88.1474V21.7078Z" fill="white"/>
<path d="M98.1471 14.4668C93.4805 14.4668 90.3695 17.0526 90.3695 21.042V21.4114L95.1101 21.042C95.1101 19.3428 95.9249 18.8256 97.9249 18.8256C99.8508 18.8256 100.962 19.195 100.962 21.1159V21.633L95.2583 22.5196C91.8509 23.0367 89.9991 24.6621 89.9991 27.174C89.9991 30.203 92.2954 31.7545 95.2583 31.7545C98.3693 31.7545 99.9989 30.4246 100.962 29.1687H101.184V31.3851H105.777V21.5592C105.628 17.2003 103.036 14.4668 98.1471 14.4668ZM96.8138 27.9866C95.3324 27.9866 94.6657 27.6911 94.6657 26.8046C94.6657 26.1397 95.1101 25.7703 96.1472 25.6225L100.888 24.8837C100.888 27.4695 98.8138 27.9866 96.8138 27.9866Z" fill="white"/>
<path d="M108.592 10.6252V31.4591H113.555V9.29541L108.592 10.6252Z" fill="white"/>
<path d="M116.665 10.6252V31.4591H121.628V9.29541L116.665 10.6252Z" fill="white"/>
<path fill-rule="evenodd" clip-rule="evenodd" d="M132.443 14.4678C127.11 14.4678 123.925 17.8662 123.925 23.1116C123.925 28.357 127.11 31.7554 132.443 31.7554C137.776 31.7554 140.888 28.357 140.888 23.1116C140.888 17.8662 137.776 14.4678 132.443 14.4678ZM132.595 27.7058C130.065 27.7058 128.006 25.6447 128.006 23.1112C128.006 20.5777 130.065 18.5166 132.595 18.5166C132.979 18.5166 133.362 18.5638 133.739 18.6583C133.816 18.682 133.887 18.7351 133.922 18.806L133.997 18.9511C134.543 20.0179 135.48 20.8331 136.612 21.2273C136.73 21.2686 136.806 21.3749 136.806 21.499V24.7175C136.806 24.8415 136.73 24.9478 136.612 24.9892C135.48 25.3835 134.542 26.1975 133.992 27.2631L133.916 27.4105C133.881 27.4873 133.81 27.5404 133.733 27.5581C133.356 27.6585 132.973 27.7058 132.595 27.7058Z" fill="white"/>
<path d="M152.887 14.4668C150.369 14.4668 148.443 15.4272 147.554 17.2742H147.406V14.8362H142.814V36.9999L147.776 35.67V29.2426H147.925C148.665 30.6463 150.295 31.7545 152.961 31.7545C157.48 31.7545 159.998 28.356 159.998 23.1106C160.072 17.8652 157.554 14.4668 152.887 14.4668ZM151.406 27.5434C149.036 27.5434 147.776 26.7307 147.776 24.4404V21.7808C147.776 19.5644 149.11 18.6779 151.406 18.6779C154.295 18.6779 155.036 20.0816 155.036 23.1106C155.036 26.1397 154.295 27.5434 151.406 27.5434Z" fill="white"/>
<path d="M28.1588 2.3853C24.9829 5.65767 21.807 8.91802 18.6312 12.1904C18.5951 12.2145 18.571 12.2385 18.5349 12.2746L11.6178 19.1923C10.9561 19.854 10.9561 20.9488 11.6178 21.6105L18.174 28.1673L10.102 36.6249C8.85092 35.7707 7.65996 34.7842 6.48104 33.5932C-1.97592 25.1476 -2.26464 14.7048 6.25247 6.17499C13.0012 -0.57428 20.9649 -1.7172 28.1588 2.3853Z" fill="url(#paint0_linear_1_2)"/>
<path d="M33.8366 33.7499C27.0999 40.4751 19.1843 41.6782 12.0386 37.8163L14.8776 34.8447C17.055 32.5949 19.2204 30.3572 21.3978 28.1074L23.5872 25.9178L27.8819 21.6228C28.5435 20.9611 28.5435 19.8663 27.8819 19.2046L25.909 17.2316L21.3737 12.696L29.3615 4.33458L30.0592 3.61273C31.2382 4.44286 32.4171 5.44141 33.5359 6.56028C41.9207 14.9217 42.2815 25.2922 33.8366 33.7499Z" fill="url(#paint1_linear_1_2)"/>
<defs>
<linearGradient id="paint0_linear_1_2" x1="23.1081" y1="-13.4459" x2="-30.694" y2="104.097" gradientUnits="userSpaceOnUse">
<stop stop-color="#00DECA"/>
<stop offset="0.37798" stop-color="#3A8AFA"/>
<stop offset="1" stop-color="#1A6AF4"/>
</linearGradient>
<linearGradient id="paint1_linear_1_2" x1="34.9846" y1="-9.74596" x2="-18.4869" y2="107.013" gradientUnits="userSpaceOnUse">
<stop stop-color="#00DECA"/>
<stop offset="0.37798" stop-color="#3A8AFA"/>
<stop offset="1" stop-color="#1A6AF4"/>
</linearGradient>
</defs>
</svg>
